<svg xmlns="http://www.w3.org/2000/svg" viewBox="0 0 47 36.57"><g data-name="Слой 2"><g data-name="Слой 1"><path d="M46 36.07v.1h.09H46zm.09-.07a.12.12 0 0 1 .1 0 .08.08 0 0 1 0 .08.09.09 0 0 1 0 .07.2.2 0 0 1-.08 0l.11.13h-.09l-.11-.13v.13H46V36zm0 .48h.12l.09-.06a.36.36 0 0 0 .07-.1.43.43 0 0 0 0-.12.27.27 0 0 0-.09-.21.2.2 0 0 0-.09-.06.22.22 0 0 0-.12 0 .2.2 0 0 0-.11 0 .33.33 0 0 0-.1.06.21.21 0 0 0-.06.1.2.2 0 0 0 0 .11.23.23 0 0 0 0 .12.21.21 0 0 0 .06.1l.1.06h.11m0-.68a.41.41 0 0 1 .16 0l.12.08a.35.35 0 0 1 .08.13.32.32 0 0 1 0 .14.33.33 0 0 1 0 .15.25.25 0 0 1-.08.12.34.34 0 0 1-.12.09.41.41 0 0 1-.16 0 .4.4 0 0 1-.15 0 .53.53 0 0 1-.21-.21.33.33 0 0 1 0-.15.32.32 0 0 1 0-.14.38.38 0 0 1 .09-.13.36.36 0 0 1 .12-.08h.15m-36-1.37a1.17 1.17 0 1 1 1.18 1.24 1.16 1.16 0 0 1-1.18-1.24m3.13 0V32.5h-.8v.5a1.46 1.46 0 0 0-1.22-.57 2 2 0 0 0 0 4.06 1.46 1.46 0 0 0 1.22-.57v.47h.84zm28.34 0a1.17 1.17 0 1 1 1.17 1.24 1.16 1.16 0 0 1-1.17-1.24m3.13 0V31h-.84v2a1.46 1.46 0 0 0-1.22-.57 2 2 0 0 0 0 4.06 1.46 1.46 0 0 0 1.22-.57v.47h.84zm-21.02-1.27a1 1 0 0 1 1 .93h-2a1 1 0 0 1 1-.93m0-.76a2 2 0 0 0 0 4.06 2.36 2.36 0 0 0 1.58-.54l-.41-.63a1.82 1.82 0 0 1-1.12.41 1.07 1.07 0 0 1-1.15-1h2.86v-.32a1.86 1.86 0 0 0-1.83-2m10.12 2a1.17 1.17 0 1 1 1.3 1.29 1.16 1.16 0 0 1-1.17-1.24m3.13 0V32.5h-.84v.5a1.46 1.46 0 0 0-1.22-.57 2 2 0 0 0 0 4.06 1.46 1.46 0 0 0 1.22-.57v.47h.84zm-7.86 0a2 2 0 0 0 2.06 2A2 2 0 0 0 32.5 36l-.4-.68a1.74 1.74 0 0 1-1 .35 1.16 1.16 0 0 1-1.16-1.24 1.14 1.14 0 0 1 1.16-1.23 1.73 1.73 0 0 1 1 .34l.4-.68a2 2 0 0 0-1.38-.46 2 2 0 0 0-2.06 2m10.81-2a1.15 1.15 0 0 0-1 .57v-.47H38v3.86h.84V34.2c0-.64.28-1 .83-1a1.41 1.41 0 0 1 .52.1l.26-.79a1.91 1.91 0 0 0-.6-.11m-22.48.41a2.88 2.88 0 0 0-1.58-.41c-1 0-1.6.47-1.6 1.24s.47 1 1.33 1.14h.39c.46.07.68.19.68.41s-.31.47-.88.47a2 2 0 0 1-1.28-.41l-.4.66a2.84 2.84 0 0 0 1.67.5c1.12 0 1.76-.53 1.76-1.26s-.5-1-1.34-1.16h-.4c-.36-.05-.65-.12-.65-.38s.27-.45.73-.45a2.42 2.42 0 0 1 1.2.33zm10.82-.41a1.15 1.15 0 0 0-1 .57v-.47h-.83v3.86h.84V34.2c0-.64.27-1 .82-1a1.46 1.46 0 0 1 .53.1l.26-.79a1.91 1.91 0 0 0-.6-.11m-7.16.1h-1.37v-1.17h-.85v1.17h-.78v.77h.78V35c0 .89.35 1.43 1.34 1.43a2 2 0 0 0 1-.3l-.17-.69a1.63 1.63 0 0 1-.74.22c-.42 0-.56-.26-.56-.65v-1.74h1.37zM8.51 36.36v-2.42A1.44 1.44 0 0 0 7 32.4a1.5 1.5 0 0 0-1.35.69 1.43 1.43 0 0 0-1.28-.69 1.3 1.3 0 0 0-1.14.6v-.5h-.84v3.86h.85v-2.14a.9.9 0 0 1 .94-1c.56 0 .84.36.84 1v2.15h.85v-2.15a.91.91 0 0 1 .94-1c.58 0 .85.36.85 1v2.15z" fill="#333333"/><path d="M46.56 23.53V23h-.15l-.17.38-.17-.38h-.15v.56H46v-.42l.16.36h.1l.16-.37v.43zm-.94 0v-.47h.19V23h-.48v.09h.19v.47z" fill="#f79410"/><path d="M29.86 26H17.14V3.11h12.72z" fill="#ff5f00"/><path d="M18 14.53a14.5 14.5 0 0 1 5.51-11.42 14.53 14.53 0 1 0-9 26 14.44 14.44 0 0 0 9-3.11A14.5 14.5 0 0 1 18 14.53" fill="#eb001b"/><path d="M47 14.53A14.53 14.53 0 0 1 23.49 26a14.52 14.52 0 0 0 0-22.84A14.53 14.53 0 0 1 47 14.53" fill="#f79e1b"/></g></g></svg>