<svg xmlns="http://www.w3.org/2000/svg" viewBox="0 0 47 13.3"><defs><style>.cls-1{fill:#4db45e;fill-rule:evenodd}</style><linearGradient id="Безымянный_градиент_6" x1="33.03" y1="1736.28" x2="46.86" y2="1736.28" gradientTransform="matrix(1 0 0 -1 .14 1739.01)" gradientUnits="userSpaceOnUse"><stop offset=".3" stop-color="#00b4e6"/><stop offset="1" stop-color="#088ccb"/></linearGradient></defs><g id="Слой_2" data-name="Слой 2"><g id="Слой_1-2" data-name="Слой 1"><g id="mir-logo"><g id="g5"><path id="path7" class="cls-1" d="M12.67 0a2.45 2.45 0 0 0-2.33 1.74c-.45 1.6-1.71 6-1.74 6.15h-.35S7 3.38 6.51 1.74A2.46 2.46 0 0 0 4.18 0H0v13.3h4.18V5.4h.35L7 13.3h2.88l2.44-7.89h.35v7.89h4.18V0z"/></g><g id="g9"><path id="path11" class="cls-1" d="M27.94 0a2.35 2.35 0 0 0-1.8 1.39l-3 6.51h-.35V0h-4.14v13.3h4a2.4 2.4 0 0 0 1.86-1.39l2.9-6.51h.35v7.9h4.18V0z"/></g><g id="g13"><path id="path15" class="cls-1" d="M33.75 6v7.3h4.19V9.06h4.53a4.53 4.53 0 0 0 4.27-3z"/></g><g id="g17"><path id="path24" d="M42.47 0h-9.3A6.67 6.67 0 0 0 38 5.23a6.72 6.72 0 0 0 1.75.23h7.17a4.73 4.73 0 0 0 .08-.93A4.53 4.53 0 0 0 42.47 0z" fill="url(#Безымянный_градиент_6)" fill-rule="evenodd"/></g></g></g></g></svg>