<svg xmlns="http://www.w3.org/2000/svg" viewBox="0 0 47 47"><defs><style>.cls-1{fill:#006fcf}</style></defs><g id="Слой_2" data-name="Слой 2"><g id="Слой_1-2" data-name="Слой 1"><g id="ae-logo"><path class="cls-1" d="M47 25.44V0H0v47h47V33.29c-.1 0 0-7.85 0-7.85"/><path d="M41.24 22.82h3.56v-8.27h-3.87v1.15l-.73-1.15h-3.35V16l-.63-1.47H30c-.21 0-.42.1-.63.1s-.31.11-.52.21-.31.11-.52.21v-.52H10.68l-.53 1.36-.52-1.36H5.44V16l-.62-1.47H1.47L0 18.11v4.71h2.41l.42-1.15h.83l.42 1.15h18.43v-1.05l.73 1.05h5.13v-.63c.1.11.31.11.42.21s.31.11.41.21a1.39 1.39 0 0 0 .63.1h3.77l.4-1.15h.84l.42 1.15h5.13v-1zM47 33.29v-7.75H18.21l-.73 1.05-.73-1.05H8.37v8.27h8.38l.73-1.05.73 1.05h5.24V32h-.21a5 5 0 0 0 1.88-.31v2.2h3.77v-1.02l.73 1.05h15.6a9.09 9.09 0 0 0 1.78-.63z" fill="#fff"/><path class="cls-1" d="M45.22 31.3h-2.83v1.15h2.73A1.73 1.73 0 0 0 47 30.67a1.46 1.46 0 0 0-1.67-1.57h-1.26a.53.53 0 0 1 0-1.05h2.41L47 26.9h-2.83a1.71 1.71 0 0 0-1.88 1.68A1.47 1.47 0 0 0 44 30.15h1.26a.49.49 0 0 1 .52.52c.07.42-.14.63-.56.63zm-5.13 0h-2.82v1.15H40a1.73 1.73 0 0 0 1.88-1.78 1.46 1.46 0 0 0-1.68-1.57h-1.26a.53.53 0 0 1 0-1.05h2.41l.52-1.15H39a1.71 1.71 0 0 0-1.88 1.68 1.47 1.47 0 0 0 1.68 1.57h1.25a.49.49 0 0 1 .52.52.48.48 0 0 1-.48.63zM36.43 28v-1.2H32v5.55h4.4v-1.16h-3.11V30h3v-1.11h-3v-1.05h3.14zm-7.12 0c.52 0 .73.31.73.63s-.21.62-.73.62h-1.57v-1.41zm-1.57 2.41h.63l1.67 2h1.57l-1.88-2.1a1.68 1.68 0 0 0 1.46-1.67 1.73 1.73 0 0 0-1.88-1.78h-2.93v5.55h1.25zm-3.35-1.68a.66.66 0 0 1-.73.73H22V28h1.57a.74.74 0 0 1 .82.68zm-3.66-1.93v5.55H22v-1.89h1.68a1.84 1.84 0 0 0 2-1.88 1.82 1.82 0 0 0-1.89-1.89zm-1.89 5.55h1.57l-2.2-2.83 2.2-2.72h-1.57l-1.36 1.78-1.36-1.78h-1.57l2.2 2.72-2.2 2.72h1.57l1.36-1.78zM14.13 28v-1.2h-4.4v5.55h4.4v-1.16H11V30h3v-1.11h-3v-1.05h3.14zm25.44-9.84l2.2 3.35h1.57v-5.6h-1.26v3.66l-.31-.52-2-3.14H38.1v5.55h1.26v-3.77zM34.12 18l.42-1.15L35 18l.53 1.26H33.6zm2.2 3.46h1.36l-2.4-5.55H33.6l-2.41 5.55h1.36l.53-1.15h2.72zm-5.86 0l.54-1.15h-.31a1.41 1.41 0 0 1-1.47-1.57v-.11a1.41 1.41 0 0 1 1.47-1.57H32v-1.15h-1.43A2.5 2.5 0 0 0 28 18.63v.11a2.42 2.42 0 0 0 2.46 2.72zm-4.71 0H27V16h-1.25zM23 17.06a.64.64 0 1 1 0 1.26h-1.54V17zm-1.57 2.41h.63l1.67 2h1.57l-1.88-2.09a1.68 1.68 0 0 0 1.46-1.68A1.73 1.73 0 0 0 23 15.91h-2.9v5.55h1.25zm-2.3-2.41v-1.15h-4.4v5.55h4.4v-1.15H16v-1.15h3V18h-3v-1h3.14zm-9.53 4.4h1.15l1.6-4.46v4.5h1.26v-5.59h-2.1l-1.25 3.77L9 15.91H6.91v5.55h1.25V17zM2.83 18l.41-1.15.42 1.15.53 1.26H2.3zM5 21.46h1.39L4 15.91H2.41L0 21.46h1.36l.52-1.15h2.73z"/></g></g></g></svg>