<svg xmlns="http://www.w3.org/2000/svg" xmlns:xlink="http://www.w3.org/1999/xlink" viewBox="0 0 47 36.2"><defs><linearGradient id="a" x1="108.34" y1="1769.78" x2="119.82" y2="1769.78" gradientTransform="matrix(1.13 0 0 -1.13 -90.37 2011.11)" gradientUnits="userSpaceOnUse"><stop offset="0" stop-color="#007940"/><stop offset=".23" stop-color="#00873f"/><stop offset=".74" stop-color="#40a737"/><stop offset="1" stop-color="#5cb531"/></linearGradient><linearGradient id="b" x1="108.34" y1="1771.55" x2="119.81" y2="1771.55" xlink:href="#a"/><linearGradient id="c" x1="108.34" y1="1773.5" x2="119.82" y2="1773.5" xlink:href="#a"/><linearGradient id="d" x1="82.65" y1="1771.56" x2="94.3" y2="1771.56" gradientTransform="matrix(1.13 0 0 -1.13 -90.37 2011.11)" gradientUnits="userSpaceOnUse"><stop offset="0" stop-color="#1f286f"/><stop offset=".48" stop-color="#004e94"/><stop offset=".83" stop-color="#0066b1"/><stop offset="1" stop-color="#006fbc"/></linearGradient><linearGradient id="e" x1="95.43" y1="1771.54" x2="106.75" y2="1771.54" gradientTransform="matrix(1.13 0 0 -1.13 -90.37 2011.11)" gradientUnits="userSpaceOnUse"><stop offset="0" stop-color="#6c2c2f"/><stop offset=".17" stop-color="#882730"/><stop offset=".57" stop-color="#be1833"/><stop offset=".86" stop-color="#dc0436"/><stop offset="1" stop-color="#e60039"/></linearGradient></defs><g data-name="Слой 2"><g data-name="Слой 1"><path d="M47 28.9a7.32 7.32 0 0 1-7.3 7.3H0V7.3A7.32 7.32 0 0 1 7.3 0H47z" fill="#fff"/><path d="M34.07 21.49h3.37a1.34 1.34 0 0 0 1.07-1.35 1.39 1.39 0 0 0-1.07-1.35 1.42 1.42 0 0 0-.37 0h-3z" fill="url(#a)"/><path d="M36.74 2.44a5.23 5.23 0 0 0-5.22 5.23v5.43h7.38a2.91 2.91 0 0 1 .52 0c1.66.09 2.9.95 2.9 2.44A2.46 2.46 0 0 1 39.93 18c1.7.12 3 1.07 3 2.53s-1.44 2.62-3.33 2.62h-8.1v10.63h7.67a5.23 5.23 0 0 0 5.23-5.22V2.44z" fill="url(#b)"/><path d="M38.15 15.92a1.23 1.23 0 0 0-1.06-1.24h-3.02v2.53h2.73a.78.78 0 0 0 .29 0 1.22 1.22 0 0 0 1.06-1.29z" fill="url(#c)"/><path d="M7.84 2.44a5.23 5.23 0 0 0-5.23 5.23v12.9a10.34 10.34 0 0 0 4.51 1.18 2.5 2.5 0 0 0 2.79-2.59v-6.09h4.48v6.06c0 2.36-1.46 4.28-6.43 4.28a22 22 0 0 1-5.37-.66v11h7.67a5.23 5.23 0 0 0 5.22-5.23V2.44z" fill="url(#d)"/><path d="M22.29 2.44a5.23 5.23 0 0 0-5.23 5.23v6.84c1.33-1.12 3.62-1.84 7.33-1.67a23.91 23.91 0 0 1 4.11.63v2.22a9.8 9.8 0 0 0-4-1.15c-2.81-.2-4.51 1.17-4.51 3.59s1.7 3.82 4.51 3.59a10.47 10.47 0 0 0 4-1.15v2.21a22.29 22.29 0 0 1-4.11.63c-3.71.18-6-.54-7.33-1.66v12.06h7.68A5.22 5.22 0 0 0 30 28.58V2.44z" fill="url(#e)"/></g></g></svg>