<svg xmlns="http://www.w3.org/2000/svg" viewBox="0 0 47 36.57"><defs><style>.cls-1{fill:#0099df}</style></defs><g id="Слой_2" data-name="Слой 2"><g id="Слой_1-2" data-name="Слой 1"><g id="maestro-logo"><path class="cls-1" d="M46.56 23.53V23h-.15l-.17.38-.17-.38h-.15v.56H46v-.42l.16.36h.1l.16-.37v.43zm-.94 0v-.47h.19V23h-.48v.09h.19v.47z"/><path d="M29.86 26H17.14V3.11h12.72z" fill="#6c6bbd"/><path d="M18 14.53a14.5 14.5 0 0 1 5.51-11.42 14.53 14.53 0 1 0-9 26 14.44 14.44 0 0 0 9-3.11A14.5 14.5 0 0 1 18 14.53" fill="#eb001b"/><path class="cls-1" d="M47 14.53A14.53 14.53 0 0 1 23.49 26a14.52 14.52 0 0 0 0-22.84A14.53 14.53 0 0 1 47 14.53"/><path d="M34.14 32.41a1.89 1.89 0 0 1 .6.1l-.26.79a1.41 1.41 0 0 0-.52-.1c-.55 0-.83.36-.83 1v2.16h-.84V32.5h.83v.5a1.14 1.14 0 0 1 1-.56m-3.1.86h-1.35V35c0 .39.13.65.55.65a1.52 1.52 0 0 0 .75-.22l.24.72a2 2 0 0 1-1.05.3c-1 0-1.34-.54-1.34-1.43v-1.75H28v-.77h.78v-1.17h.85v1.17H31zm-10.74.82a1 1 0 0 1 1-.93 1 1 0 0 1 1 .93zm2.87.34a1.85 1.85 0 0 0-1.83-2 1.88 1.88 0 0 0-1.92 2 1.9 1.9 0 0 0 2 2 2.37 2.37 0 0 0 1.6-.54l-.41-.63a1.87 1.87 0 0 1-1.13.41 1.07 1.07 0 0 1-1.15-1h2.86v-.32m3.69-.94a2.45 2.45 0 0 0-1.2-.33c-.46 0-.74.17-.74.45s.29.33.66.38L26 34c.84.13 1.35.48 1.35 1.16s-.65 1.26-1.76 1.26a2.77 2.77 0 0 1-1.67-.5l.39-.66a2.08 2.08 0 0 0 1.29.41c.57 0 .88-.17.88-.47s-.22-.34-.68-.4l-.4-.06c-.86-.12-1.33-.51-1.33-1.14s.63-1.23 1.61-1.23a2.84 2.84 0 0 1 1.57.4zm10.35-.29a1.28 1.28 0 0 0-.48.09 1.16 1.16 0 0 0-.39.26 1.3 1.3 0 0 0-.25.39 1.35 1.35 0 0 0-.09.5 1.36 1.36 0 0 0 .09.51 1.3 1.3 0 0 0 .25.39 1.33 1.33 0 0 0 .39.26 1.33 1.33 0 0 0 1 0 1.33 1.33 0 0 0 .39-.26 1.14 1.14 0 0 0 .25-.39 1.19 1.19 0 0 0 .1-.51 1.18 1.18 0 0 0-.1-.5 1.14 1.14 0 0 0-.25-.39 1.16 1.16 0 0 0-.39-.26 1.28 1.28 0 0 0-.48-.09m0-.79a2.23 2.23 0 0 1 .83.15 2 2 0 0 1 .66.43 2 2 0 0 1 .44.65 2.11 2.11 0 0 1 0 1.61 2 2 0 0 1-.44.65 2 2 0 0 1-.66.43 2.37 2.37 0 0 1-1.66 0 2 2 0 0 1-.66-.43 2 2 0 0 1-.44-.65 2.24 2.24 0 0 1 0-1.61 2 2 0 0 1 .44-.65 2 2 0 0 1 .66-.43 2.23 2.23 0 0 1 .83-.15m-21.82 2a1.17 1.17 0 1 1 1.17 1.24 1.16 1.16 0 0 1-1.17-1.24m3.13 0V32.5h-.84v.5a1.46 1.46 0 0 0-1.22-.56 2 2 0 0 0 0 4.05 1.46 1.46 0 0 0 1.22-.57v.47h.84zm-4.73 1.93v-2.35a1.43 1.43 0 0 0-1.52-1.53 1.47 1.47 0 0 0-1.35.68 1.42 1.42 0 0 0-1.28-.68 1.28 1.28 0 0 0-1.17.59v-.5h-.84v3.86h.85v-2.14a.9.9 0 0 1 .94-1c.56 0 .84.36.84 1v2.15h.85v-2.15a.91.91 0 0 1 .94-1c.58 0 .85.36.85 1v2.15zm26.37-.22v.1h.14-.14zm.09-.07a.14.14 0 0 1 .11 0 .1.1 0 0 1 0 .08.09.09 0 0 1 0 .07.2.2 0 0 1-.08 0l.11.13h-.09l-.1-.13v.13h-.07V36zm0 .48h.11l.1-.06.06-.1a.23.23 0 0 0 0-.12.2.2 0 0 0 0-.11l-.06-.1a.33.33 0 0 0-.1-.06.2.2 0 0 0-.11 0 .25.25 0 0 0-.12 0 .33.33 0 0 0-.1.06l-.06.1a.2.2 0 0 0 0 .11.23.23 0 0 0 0 .12l.06.1.1.06h.12m0-.68h.15a.36.36 0 0 1 .12.08.38.38 0 0 1 .09.13.32.32 0 0 1 0 .14.33.33 0 0 1 0 .15.53.53 0 0 1-.21.21.4.4 0 0 1-.15 0 .41.41 0 0 1-.16 0 .27.27 0 0 1-.12-.09.38.38 0 0 1-.09-.12.33.33 0 0 1 0-.15.32.32 0 0 1 0-.14.6.6 0 0 1 .09-.13.36.36 0 0 1 .12-.08.41.41 0 0 1 .16 0" fill="#333"/></g></g></g></svg>