<svg xmlns="http://www.w3.org/2000/svg" viewBox="0 0 47 15.18"><g data-name="Слой 2"><path d="M24.31 4.85c0 2.12 1.88 3.3 3.32 4s2 1.18 2 1.82c0 1-1.18 1.42-2.27 1.44a7.94 7.94 0 0 1-3.9-.93l-.69 3.22a11.48 11.48 0 0 0 4.22.78c4 0 6.6-2 6.62-5 0-3.88-5.36-4.09-5.33-5.82 0-.53.52-1.09 1.62-1.23a7.17 7.17 0 0 1 3.74.65l.64-3.13A10.29 10.29 0 0 0 30.72 0C27 0 24.33 2 24.31 4.85M40.69.27a1.71 1.71 0 0 0-1.61 1.07L33.38 15h4l.8-2.19H43l.49 2.19H47L43.93.27h-3.24m.56 4l1.15 5.48h-3.15l2-5.52M19.47.27L16.33 15h3.8L23.27.27h-3.8m-5.61 0l-4 10L8.3 1.76A1.76 1.76 0 0 0 6.55.27H.09L0 .69a16.31 16.31 0 0 1 3.75 1.25 1.61 1.61 0 0 1 .9 1.29L7.68 15h4L17.84.27h-4" fill="#000" data-name="Слой 1"/></g></svg>